<?xml version="1.0" standalone="no"?>
<!DOCTYPE svg PUBLIC "-//W3C//DTD SVG 1.1//EN" "http://www.w3.org/Graphics/SVG/1.1/DTD/svg11.dtd" >
<!--
2013-9-30: Created.
-->
<svg>
<metadata>
Created by iconfont
</metadata>
<defs>

<font id="iconfont" horiz-adv-x="1024" >
  <font-face
    font-family="iconfont"
    font-weight="500"
    font-stretch="normal"
    units-per-em="1024"
    ascent="896"
    descent="-128"
  />
    <missing-glyph />
    
    <glyph glyph-name="gupiao" unicode="&#58962;" d="M996.09444 482.149391c-15.296381 0-27.662013 12.541641-27.662013 28.036543L968.432427 718.962911 580.702732 281.309176c-2.336208-28.808116-25.876344-51.532677-54.882981-51.532677-25.809829 0-47.278793 17.98563-53.42784 42.186821L319.40354 428.369533c-4.782933-1.344624-9.698896-2.314719-14.900362-2.314719-5.202489 0-10.138918 0.970094-14.921851 2.314719L103.59645 238.262778c-11.06501-10.711969-28.984125-10.711969-40.026622 0-5.179976 4.981455-7.714705 11.527544-8.045233 18.117636l0-222.925209c0-30.945803 24.774243-56.073086 55.324026-56.073086l746.936777 0c30.527271 0 55.324026 25.127284 55.324026 56.073086L913.109424 229.7765l0 56.073086 0 28.036543c0 15.517415 12.364609 28.059056 27.662013 28.059056 15.296381 0 27.662013-12.541641 27.662013-28.059056l0-28.036543 0-56.073086 0-224.358861c0-46.441729-37.183877-84.132142-82.986039-84.132142L83.185584-78.714504c-45.823652 0-82.985016 37.690414-82.985016 84.132142L0.200568 762.582361c0 46.440705 37.161365 84.132142 82.985016 84.132142l387.31014 0 55.324026 0 27.663036 0c15.296381 0 27.66099-12.541641 27.66099-28.036543 0-15.517415-12.364609-28.059056-27.66099-28.059056l-27.663036 0-55.324026 0L110.847597 790.618904c-30.54876 0-55.324026-25.127284-55.324026-56.073086l0-475.673653c0.330528 6.568602 2.865257 13.09218 8.045233 18.11866l187.394994 191.627389c-1.035586 4.341888-1.785669 8.816806-1.785669 13.533224 0 30.968315 24.774243 56.073086 55.324026 56.073086 30.54876 0 55.324026-25.104771 55.324026-56.073086 0-4.716418-0.74906-9.191336-1.807159-13.533224l134.893246-137.89051c9.212826 6.943133 20.541849 11.219529 32.907481 11.219529 10.073426 0 19.374256-2.931772 27.486004-7.692193l379.529943 428.329369L719.453842 762.584408c-15.296381 0-27.662013 12.541641-27.662013 28.036543 0 15.517415 12.365632 28.059056 27.662013 28.059056l276.640598 0c15.296381 0 27.662013-12.541641 27.662013-28.059056l0-280.431947C1023.756453 494.692055 1011.390821 482.149391 996.09444 482.149391L996.09444 482.149391 996.09444 482.149391z"  horiz-adv-x="1040" />

    
    <glyph glyph-name="zuidahua1" unicode="&#58923;" d="M128.576377 0.579447 128.576377 767.421576l766.846222 0 0-766.842129L128.576377 0.579447zM799.567461 671.565415 224.432539 671.565415l0-575.134923 575.134923 0L799.567461 671.565415z"  horiz-adv-x="1024" />

    
    <glyph glyph-name="chaxun1" unicode="&#58907;" d="M229.83609 718.808188l461.985567 0 0-57.748052-461.985567 0 0 57.748052ZM228.296527 602.744999l461.985567 0 0-57.748052-461.985567 0 0 57.748052ZM114.341142 835.245585l692.976619 0 0-461.984413 57.748052 0 0 461.984413c0 31.893094-25.854958 57.748052-57.748052 57.748052l-692.976619 0c-31.893094 0-57.748052-25.854958-57.748052-57.748052l0-808.472722c0-31.893094 25.854958-57.748052 57.748052-57.748052l404.236361 0 0 57.748052-404.236361 0L114.341142 835.245585zM229.451488 371.758568l0-57.748052 140.452501 0c0 20.068603 2.939376 39.447694 8.386172 57.748052L229.451488 371.758568zM465.562482 487.254671 228.296527 487.254671l0-57.748052 175.543682 0C420.103216 452.819508 441.148916 472.545087 465.562482 487.254671zM902.807629 22.477563 770.391347 153.321943c30.443618 35.382231 48.851387 81.416668 48.851387 131.75449 0 111.626984-90.492352 202.11818-202.117026 202.11818-111.625829 0-202.11818-90.491197-202.11818-202.11818 0-111.624674 90.492352-202.11818 202.11818-202.11818 40.412086 0 78.049957 11.867225 109.631211 32.298485l135.217063-133.613977c11.275885-11.275885 29.557763-11.275885 40.833647 0C914.082359-7.0802 914.082359 11.200523 902.807629 22.477563zM472.754424 285.076433c0 79.73389 64.638549 144.370129 144.371284 144.370129 79.73158 0 144.368974-64.636239 144.368974-144.370129 0-79.73158-64.637394-144.370129-144.368974-144.370129C537.392973 140.706304 472.754424 205.344853 472.754424 285.076433z"  horiz-adv-x="1045" />

    
    <glyph glyph-name="sanjiao" unicode="&#58929;" d="M122.869341 893.77648 851.98782 896 1584.920784 889.527512C1629.474237 889.527512 1668.639278 887.116569 1681.652405 877.153328 1713.071326 853.099276 1709.638076 803.968864 1681.652405 776.106717L905.874092-73.356564C891.086834-88.207717 871.349905-94.556674 851.928185-93.602521 832.502205-94.558804 812.82704-88.207717 797.975887-73.356564L22.199706 776.104585C-5.722077 803.966735-8.769832 852.647755 22.199706 877.085174 36.607856 888.4477 61.684215 893.77648 122.869341 893.77648L122.869341 893.77648Z"  horiz-adv-x="1707" />

    
    <glyph glyph-name="guanbi" unicode="&#58964;" d="M155.252-47.825c-19.213 0-38.429 7.332-53.089 21.988-29.317 29.321-29.317 76.855 0 106.175l713.494 713.494c29.317 29.321 76.853 29.321 106.175 0 29.317-29.317 29.317-76.855 0-106.175l-713.494-713.494c-14.66-14.66-33.874-21.988-53.089-21.988zM868.749-47.824c-19.213 0-38.428 7.332-53.089 21.988l-713.494 713.493c-29.317 29.317-29.317 76.857 0 106.175 29.316 29.317 76.855 29.321 106.174 0l713.494-713.492c29.317-29.321 29.317-76.855 0-106.175-14.657-14.661-33.871-21.993-53.087-21.993z"  horiz-adv-x="1024" />

    
    <glyph glyph-name="zuixiaohua" unicode="&#59002;" d="M128 448h768v-128H128z"  horiz-adv-x="1024" />

    
    <glyph glyph-name="hushenhangqing" unicode="&#59048;" d="M899.820896 1.910448h-687.761195c-74.507463 0-133.731343 59.223881-133.731343 133.731343v573.134328c0 21.014925 17.19403 38.208955 38.208955 38.208956s38.208955-17.19403 38.208956-38.208956v-573.134328c0-32.477612 24.835821-57.313433 57.313432-57.313433h687.761195c21.014925 0 38.208955-17.19403 38.208955-38.208955s-17.19403-38.208955-38.208955-38.208955zM662.925373 466.149254c-7.641791 0-15.283582 3.820896-21.014925 9.552239-11.462687 11.462687-9.552239 30.567164 1.910448 40.119403l152.83582 137.552238c11.462687 11.462687 30.567164 9.552239 40.119403-1.910447 11.462687-11.462687 9.552239-30.567164-1.910447-40.119403l-152.835821-137.552239c-5.731343-5.731343-13.373134-7.641791-19.104478-7.641791zM135.641791 309.492537c-7.641791 0-13.373134 1.910448-19.104478 7.641791-11.462687 11.462687-11.462687 28.656716-1.910447 40.119403l204.41791 219.701493c11.462687 11.462687 28.656716 11.462687 40.119403 1.910448l89.791045-82.149254c11.462687-11.462687 11.462687-28.656716 1.910448-40.119403-11.462687-11.462687-28.656716-11.462687-40.119403-1.910448l-68.77612 63.044776-185.313433-198.686567c-5.731343-5.731343-13.373134-9.552239-21.014925-9.552239zM832.955224 533.014925c-15.283582 0-28.656716 13.373134-28.656717 28.656717V628.537313h-66.865671c-15.283582 0-28.656716 13.373134-28.656717 28.656717s13.373134 28.656716 28.656717 28.656716h95.522388c15.283582 0 28.656716-13.373134 28.656716-28.656716v-95.522388c0-15.283582-13.373134-28.656716-28.656716-28.656717zM565.492537 122.268657c-114.626866 0-208.238806 93.61194-208.238806 208.238806s93.61194 208.238806 208.238806 208.238806 208.238806-93.61194 208.238806-208.238806-91.701493-208.238806-208.238806-208.238806z m0 361.074627c-84.059701 0-150.925373-68.776119-150.925373-150.925374s68.776119-150.925373 150.925373-150.925373 150.925373 68.776119 150.925373 150.925373-66.865672 150.925373-150.925373 150.925374zM584.597015 435.58209h-36.298508l-66.865671-175.761194h38.208955l15.283582 42.02985h63.044776l15.283582-42.02985h40.119403l-68.776119 175.761194z m0-101.253732h-38.208955l19.104477 53.492538 19.104478-53.492538z"  horiz-adv-x="1024" />

    
    <glyph glyph-name="fanhui" unicode="&#58883;" d="M854 171.3c-4-84-73.5-151.2-158.3-151.2H321.4c-84.8 0-154.3 67.1-158.3 151.2h-0.1V594.7h0.2c4 84.1 73.5 151.3 158.3 151.3h388.8l-53.6-57.7H321.5c-55.6 0-100.9-45.4-100.9-101.1V179c0-55.7 45.3-101.1 100.9-101.1h374.2c55.6 0 145.1 45.4 145.1 101.1v20.9l-29.5 0.6 29.5 101-29.5 118.8 42.9 56.8v-305.8h-0.2z m7 498.6M328.2 745.9H702.5c84.8 0 154.3-67.1 158.3-151.2h0.2v-423.3h-0.2c-4-84.1-73.5-151.2-158.3-151.2H313.7l53.6 57.7h335.3c55.6 0 100.8 45.4 100.8 101.1V587c0 55.8-45.3 101.1-100.8 101.1H328.2M163 96M469.1 305.2L298.8 476.7l170.3 172.8V561c35.5 0 256.1-1.8 256.1-217.9 0-116.3-82.9-211.5-190-226.7 66.7 14.3 116.9 76 116.9 150.1 0 141.4-131.4 142.6-182.9 142.6v-103.9h-0.1z"  horiz-adv-x="1024" />

    
    <glyph glyph-name="zuidahua" unicode="&#58880;" d="M959.720175 896H294.216115a63.960025 63.960025 0 0 1-63.960025-63.960025v-127.92005H64.279825a63.960025 63.960025 0 0 1-63.960025-63.960025v-703.560275a63.960025 63.960025 0 0 1 63.960025-63.960025h703.560275a63.960025 63.960025 0 0 1 63.960025 63.960025v166.935665h127.92005a63.960025 63.960025 0 0 1 63.960025 63.960025V832.039975a63.960025 63.960025 0 0 1-63.960025 63.960025z m-191.880075-728.504685V-63.400375H64.279825V640.1599h703.560275z m189.321674 0H831.800125V640.1599a63.960025 63.960025 0 0 1-63.960025 63.960025H294.216115V832.039975H959.720175z"  horiz-adv-x="1024" />

    
    <glyph glyph-name="tubiao-" unicode="&#58915;" d="M873.931034 13.241379h-617.931034c-5.296552 0-8.827586 1.765517-12.358621 5.296552-3.531034 3.531034-5.296552 8.827586-5.296551 12.358621l3.531034 370.75862v3.531035c26.482759 153.6 162.427586 264.827586 323.089655 264.827586 160.662069 0 296.606897-111.227586 323.089655-264.827586v-3.531035l3.531035-370.75862c0-5.296552-1.765517-8.827586-5.296552-12.358621-3.531034-3.531034-7.062069-5.296552-12.358621-5.296552z m-600.275862 37.075862h580.855173l-3.531035 349.572414c-22.951724 135.944828-143.006897 233.048276-286.013793 233.048276s-263.062069-98.868966-286.013793-233.048276l-5.296552-349.572414zM480.22069 193.324138c-15.889655 0-31.77931 1.765517-47.668966 10.593103-26.482759 15.889655-40.606897 42.372414-38.841379 72.386207 0 10.593103 10.593103 17.655172 19.420689 15.889655 10.593103 0 17.655172-10.593103 15.889656-19.420689-1.765517-15.889655 5.296552-30.013793 19.420689-38.84138 14.124138-7.062069 28.248276-7.062069 45.903449-5.296551H630.289655c17.655172 0 28.248276 0 38.841379 7.062069 12.358621 8.827586 19.42069 26.482759 19.42069 44.137931 0 37.075862-33.544828 42.372414-47.668965 42.372414h-134.179311c-37.075862-1.765517-91.806897-3.531034-109.462069 44.137931-5.296552 14.124138-5.296552 26.482759-5.296551 38.841379v3.531034c0 24.717241 14.124138 47.668966 38.841379 61.793104 21.186207 12.358621 42.372414 10.593103 61.793103 10.593103H637.351724c14.124138 0 30.013793 0 45.903448-8.827586 37.075862-19.42069 44.137931-63.558621 45.903449-82.97931 0-10.593103-7.062069-19.42069-15.889655-19.42069-10.593103 0-19.42069 7.062069-19.42069 15.889655s-5.296552 40.606897-26.482759 52.965517c-7.062069 3.531034-17.655172 3.531034-28.248276 3.531035H494.344828c-15.889655 0-30.013793 1.765517-40.606897-5.296552-7.062069-3.531034-21.186207-14.124138-21.186207-30.013793v-3.531034c0-10.593103 0-17.655172 3.531035-24.717242 8.827586-21.186207 35.310345-21.186207 74.151724-19.420689H646.17931c51.2 0 84.744828-31.77931 84.744828-77.682759 0-28.248276-12.358621-56.496552-33.544828-72.386207-19.42069-15.889655-42.372414-15.889655-61.793103-15.889655h-134.17931c-7.062069 1.765517-14.124138 0-21.186207 0zM561.434483 145.655172c-10.593103 0-17.655172 8.827586-17.655173 17.655173V518.17931c0 10.593103 8.827586 17.655172 17.655173 17.655173s17.655172-8.827586 17.655172-17.655173v-354.868965c1.765517-8.827586-7.062069-17.655172-17.655172-17.655173zM572.027586 643.531034c-10.593103 0-21.186207 5.296552-26.482758 15.889656l-58.262069 88.275862c-7.062069 10.593103-8.827586 22.951724-3.531035 31.77931s15.889655 14.124138 28.248276 14.124138h120.055172c12.358621 0 22.951724-5.296552 28.248276-14.124138s3.531034-21.186207-3.531034-31.77931l-58.262069-88.275862c-7.062069-8.827586-15.889655-15.889655-26.482759-15.889656z m-47.668965 114.758621l47.668965-72.386207 47.668966 72.386207h-95.337931z m107.696551 0z"  horiz-adv-x="1129" />

    
    <glyph glyph-name="sousuo" unicode="&#59266;" d="M949.76 11.6736a88.68864 88.68864 0 0 0-25.64096-62.67904 87.14752 87.14752 0 0 0-123.76576-0.16896l-164.29568 160.87552a382.4128 382.4128 0 0 0-26.43968-12.6208 382.83776 382.83776 0 0 0-300.032 0 383.38048 383.38048 0 0 0-122.48064 83.39968 391.296 391.296 0 0 0 0 550.36928 384.56832 384.56832 0 0 0 627.55328-123.648 391.00416 391.00416 0 0 0-40.704-376.57088l150.32832-156.56448a88.576 88.576 0 0 0 25.47712-62.39232z m-153.6512 444.04736c0 186.33216-150.41536 337.92-335.30368 337.92s-335.32928-151.6032-335.32928-337.92S275.89632 117.76 460.8 117.76s335.3088 151.64928 335.3088 337.96096z m-503.61344-168.90368a240.45568 240.45568 0 0 0 0 337.73568l34.63168-40.07424a183.46496 183.46496 0 0 1 0-257.50528z"  horiz-adv-x="1024" />

    
    <glyph glyph-name="maichujilu" unicode="&#58889;" d="M925.9 506.4c-8.9-3-18.5 1.8-21.5 10.6C847.5 685.3 689.8 798.3 512 798.3c-222.8 0-405.1-176.8-414-397.4h156c9.3 0 16.9-7.6 16.9-16.9 0-9.3-7.6-16.9-16.9-16.9H80.8c-9.3 0-16.9 7.6-16.9 16.9 0 247.1 201 448.1 448.1 448.1 192.3 0 362.9-122.3 424.5-304.3 3-8.8-1.7-18.4-10.6-21.4zM960.1 384c0-247.1-201-448.1-448.1-448.1-194.8 0-366.1 124.3-426.2 309.4-2.9 8.9 2 18.4 10.9 21.3 9 2.9 18.4-2 21.3-10.9 55.6-171.1 214-286 394.1-286 222.8 0 405.1 176.8 414 397.4H788.2L608.7 187.5c-3.3-3.3-7.7-5-12-5s-8.7 1.7-12 5L428.1 344.1l5.9-31.7c1.7-9.2-4.4-18-13.6-19.7-1-0.2-2.1-0.3-3.1-0.3-8 0-15.1 5.7-16.6 13.9l-15.4 83.4c-1.4 6.5 0.6 12.4 4.7 16.5 6.6 6.6 17.3 6.6 23.9 0l182.8-182.8 170.5 170.5c3.8 3.8 8.8 7 15.3 7h160.7c1.7 0 3.4-0.3 5-0.8 6.9-2.1 11.9-8.5 11.9-16.1zM693.1 395.1c0-5.1-1.3-9.4-4-13-2-2.5-4.3-4.2-7.1-5-2.8-0.8-6.3-1.3-10.4-1.3H525.3c-7.2 0-12.8 2.5-16.9 7.4-2.4 3-3.6 6.9-3.6 11.7v59.8c0 3.9 1.3 7 4.1 9.2 2.7 2.2 6.3 3.4 10.8 3.4 3.6 0 6.7-1.2 9.2-3.6 2.5-2.4 3.8-5.4 3.8-9v-44.3c0-3 0.3-4.9 0.9-5.6 0.6-0.9 1.5-1.5 2.7-1.8 0.6-0.1 2-0.2 4-0.2h37.6c1.2 0 2.4 0 3.7 0.1 1.3 0.1 2.3 0.6 2.9 1.6s1 2.7 1 5.1v60.3c0 2.9-0.5 4.5-1.6 5-1 0.5-2.4 0.8-4.1 0.8h-49.7c-6.5 0-11.7 2.5-15.8 7.6-1.7 2.1-2.8 4.5-3.5 7.2-0.7 2.7-1 5.3-1 7.6v49.5c0 3.4 1.4 6.3 4.4 8.7 2.9 2.3 6.3 3.5 10 3.5s7-1.2 9.8-3.5 4.2-5.2 4.2-8.7v-36c0-1.2 0-2.4 0.1-3.7 0-1.3 0.4-2.5 1.1-3.6 0.7-1.1 2.1-1.7 4.2-1.7h36c2.7 0 4.4 0.4 5 1.1 0.6 0.6 0.9 1.7 0.9 3.4v52.6c0 3.4 1.4 6.2 4.3 8.2 2.9 2 6.2 3 10.1 3 3.8 0 7-1 9.8-3s4.2-4.8 4.2-8.2v-50.9c0-2.4 0.4-4 1.3-4.8 0.8-0.8 1.8-1.3 2.9-1.3 1.1-0.1 2.3-0.1 3.5-0.1h31.1c2.7 0 4.6 0.5 5.6 1.6 1.1 1 1.6 2.7 1.6 5v37.6c0 3.4 1.4 6.4 4.2 8.8 2.9 2.4 6.1 3.6 9.7 3.6 4.5 0 8.1-1.1 10.8-3.4 2.7-2.2 4.1-5.2 4.1-9v-51.3c0-3.3-0.1-5.6-0.3-7-0.2-1.3-1-3.1-2.4-5.2-3.3-5.1-8.2-7.6-14.6-7.6h-51.9c-2.1 0-3.5-0.5-4.2-1.6-0.7-1-1-2.3-1-3.8v-60.5c0-2.4 0.3-4.2 1-5.3s2.1-1.7 4.4-1.7h38.7c2.4 0 4.2 0.7 5.4 2 0.4 0.4 0.8 1.1 0.9 1.8 0.1 0.6 0.2 1.4 0.2 2.5v45.4c0 3.3 1.5 6 4.4 8.2 2.9 2.2 6.3 3.3 10 3.3 3.6 0 6.8-1.1 9.7-3.2 2.8-2.1 4.2-4.9 4.2-8.3v-59.4z"  horiz-adv-x="1024" />

    
    <glyph glyph-name="mairujilu" unicode="&#58894;" d="M911 502c-8.5-2.8-17.8 1.7-20.7 10.2-54.9 162.2-207 271.1-378.3 271.1-214.7 0-390.4-170.4-399-383h145.4l173.1 173.1c6.1 6.1 16.9 6.1 23.1 0l150.6-150.6-5.3 28.8c-1.6 8.8 4.2 17.3 13.1 19 9 1.6 17.4-4.2 19-13.1l14.8-80 0.1-0.4c0.9-5.1-0.6-10.5-4.5-14.5-3.2-3.2-7.4-4.8-11.5-4.8-4.2 0-8.3 1.6-11.5 4.8L443 538.8 278.7 374.5c-3.6-3.6-9.1-6.8-15.4-6.8h-167c-9 0-16.3 7.3-16.3 16.3C80 622.2 273.8 815.9 512 815.9c185.3 0 349.8-117.9 409.2-293.3 2.9-8.4-1.7-17.7-10.2-20.6zM943.9 384c0-238.2-193.8-432-431.9-432-187.7 0-352.8 119.8-410.8 298.2-2.8 8.6 1.9 17.8 10.5 20.5 8.7 2.8 17.8-1.9 20.6-10.5C185.8 95.4 338.4-15.3 512-15.3c214.7 0 390.4 170.4 399 383H772.7c-9 0-16.3 7.3-16.3 16.3s7.3 16.3 16.3 16.3h154.9c1.7 0 3.3-0.3 4.8-0.7 6.7-2.1 11.5-8.3 11.5-15.6zM570.5 232.7c3.3-3.5 5-7.4 5-11.7 0-5-2.2-9.1-6.5-12.1-1.4-1-3-1.8-4.9-2.4-1.8-0.6-3.3-0.9-4.5-0.9-2.5 0-4.7 0.5-6.7 1.5-3 1.4-6.4 4.3-10 8.5-8 8.8-14.1 16.3-18.4 22.5-2.6 3.6-7.4 11.1-14.3 22.6-4.8 7.9-9.7 16.8-14.7 26.5-4 7.7-8 15.8-11.7 24.3-0.5 0.9-1.6 3.9-3.5 9.1-1.1 3-2.1 4.5-2.8 4.5-1.4 0-3.5-4-6-11.9-2-6.6-5.3-14.6-9.8-23.8-5.5-11.4-11.6-22.5-18.4-33.2-8.1-12.6-16.4-23.4-24.9-32.3-3.2-3.3-6.3-6.7-9.4-10.1-3.1-3.4-6.6-6-10.5-7.7-2-0.9-4.1-1.3-6.3-1.3-2.3 0-4.4 0.4-6.3 1.2-1.9 0.8-3.8 2.1-5.6 4-1.2 1.3-2.1 2.8-2.8 4.3-1.2 2.5-1.7 4.8-1.7 6.9 0 1.9 0.5 3.6 1.5 5.2 1.7 2.9 4.8 6.3 9.1 10.2 5.5 5 9.2 8.6 11.1 10.6 10 10.8 18.3 21.2 24.9 31.2 8.1 12 14.9 25.2 20.4 39.7 4.6 12.4 7.4 20.1 8.5 23 3 8.8 4.5 15.1 4.5 18.9 0 1.6-0.2 2.8-0.7 3.7-0.2 0.4-0.9 0.7-2.2 0.9-1.3 0.1-2.9 0.2-4.8 0.2H416c-3.2 0.3-5.6 0.8-7.2 1.5-4.8 2.3-7.1 6.5-7.1 12.6 0 6.7 2.5 11.1 7.4 13.2 1.6 0.6 4.1 1 7.6 1.3h51.2c3 0 5.3-0.1 6.9-0.2 5-0.7 8.7-2.3 10.9-4.5 2.3-2.3 4.4-6.8 6.4-13.6 2-6.7 4-13.3 6-19.6 7.8-22.6 15-40.3 21.5-53.1 5.1-10.1 11.6-21 19.7-32.5 3.2-4.6 7-9.6 11.5-15.1 4.4-5.5 11-12.8 19.7-22.1z"  horiz-adv-x="1024" />

    
    <glyph glyph-name="chexiao" unicode="&#58975;" d="M863.146667 802.133333h-682.666667c-28.16 0-51.2-23.04-51.2-51.2v-733.866666c0-28.16 23.04-51.2 51.2-51.2h256c18.773333 0 34.133333 15.36 34.133333 34.133333s-15.36 34.133333-34.133333 34.133333h-238.933333V733.866667h648.533333v-290.133334c0-18.773333 15.36-34.133333 34.133333-34.133333s34.133333 15.36 34.133334 34.133333V750.933333c0 28.16-22.613333 51.2-51.2 51.2zM344.32 232.106667c-13.226667 13.226667-13.226667 34.986667 0 48.213333l132.693333 132.693333c13.226667 13.226667 34.986667 13.226667 48.213334 0 13.226667-13.226667 13.226667-34.986667 0-48.213333L392.533333 232.106667a33.493333 33.493333 0 0 0-48.213333 0zM344.32 280.32c13.226667 13.226667 34.986667 13.226667 48.213333 0l132.693334-132.693333c13.226667-13.226667 13.226667-34.986667 0-48.213334-13.226667-13.226667-34.986667-13.226667-48.213334 0l-132.693333 132.693334c-13.226667 13.226667-13.226667 34.56 0 48.213333zM863.146667 290.133333l-494.933334 0.426667c-18.773333 0-34.133333-15.36-34.133333-34.133333s15.36-34.133333 34.133333-34.133334l477.866667-0.426666v-187.733334h-230.826667c-18.773333 0-34.133333-15.36-34.133333-34.133333s15.36-34.133333 34.133333-34.133333h247.893334c28.16 0 51.2 23.04 51.2 51.2v221.866666c0 28.16-22.613333 51.2-51.2 51.2z"  horiz-adv-x="1024" />

    
    <glyph glyph-name="chaxun" unicode="&#58885;" d="M233.5488 702.976h552.6528v-64H233.5488v64z m-1.8432-128.64H784.384v-64H231.7056v64zM95.3856 832h828.9792v-512h69.0944v512c0 35.328-30.9248 64-69.0944 64H95.3856C57.2416 896 26.3168 867.328 26.3168 832V-64c0-35.328 30.9248-64 69.0688-64h483.584v64H95.3856V832zM233.088 318.336v-64h168.0128c0 22.272 3.5328 43.7248 10.0352 64H233.088z m282.4448 128H231.7056v-64h209.9968a236.6976 236.6976 0 0 0 73.8304 64z m467.968-515.072l-143.4368 144.9984a226.1248 226.1248 0 0 1 52.9152 146.0224c0 123.6992-98.048 224-218.9568 224-120.9344 0-218.9568-100.3008-218.9568-224s98.048-224 218.9568-224c43.776 0 84.5568 13.1584 118.784 35.7888l146.4576-148.0704c12.2112-12.4928 32.0256-12.4928 44.2368 0a32.512 32.512 0 0 1 0 45.2608zM506.2656 222.2848c0 88.3712 74.496 160 166.4 160s166.4-71.6288 166.4-160-74.496-160-166.4-160-166.4 71.6288-166.4 160z"  horiz-adv-x="1024" />

    
    <glyph glyph-name="shangyibu" unicode="&#58979;" d="M545.879102 382.649663c-4.052766 18.012293 9.006146 37.825814 23.506041 52.235649l445.353933 444.183133a57.90952 57.90952 0 1 0 81.865869-82.136054L672.775702 383.64034l423.829243-412.57156a57.819459 57.819459 0 0 0-40.887904-99.067609 57.729397 57.729397 0 0 0-40.887904 16.931555L569.385143 332.485429C557.136784 346.625078 542.817012 364.637371 545.879102 382.649663zM24.333172 434.79525L469.597043 879.068445A57.90952 57.90952 0 1 0 551.462912 796.932391L127.723731 383.64034l423.829243-412.57156a57.819459 57.819459 0 0 0-40.887904-99.067609 57.729397 57.729397 0 0 0-40.887904 16.931555L24.333172 332.485429C11.994752 346.625078-2.325021 364.637371 0.737069 382.649663c-4.052766 18.012293 9.276331 37.825814 23.596103 52.145587z"  horiz-adv-x="1114" />

    
    <glyph glyph-name="xiayibu" unicode="&#58980;" d="M567.766539 382.564991c4.052808 18.012479-9.00624 37.826207-23.506286 52.23619L99.442074 878.988924A57.910121 57.910121 0 0 1 17.305167 796.852018l423.743579-413.296341-423.743579-412.485779a57.820059 57.820059 0 0 1 40.888329-99.068637 57.729997 57.729997 0 0 1 41.248578 17.111855l444.998304 443.28712C556.778927 346.540032 571.098848 364.552511 567.766539 382.564991zM1089.588069 434.711119L644.319577 878.988924A57.910121 57.910121 0 0 1 562.362795 796.852018l423.833642-413.566528-423.833642-412.215592a57.820059 57.820059 0 0 1 40.888329-99.068637 57.729997 57.729997 0 0 1 40.888328 16.931731l445.268492 443.287119c12.248486 14.319921 27.018719 31.701964 23.506286 50.164755 4.232933 18.192604-9.00624 38.006332-23.326161 52.326253z"  horiz-adv-x="1114" />

    
    <glyph glyph-name="xingxing-kong" unicode="&#58953;" d="M959.7 487.7c-2.4 7.2-8.6 12.5-16.2 13.6l-285.9 40.9L529.2 800.9c-3.4 6.8-10.3 11.1-17.9 11.1-7.6 0-14.6-4.4-17.9-11.2L366.1 541.6 80.4 499.4c-7.5-1.1-13.8-6.4-16.1-13.6-2.3-7.2-0.4-15.2 5.1-20.5l207.3-201.1-48.2-284.8c-1.3-7.5 1.8-15.1 8-19.5 3.5-2.5 7.6-3.8 11.7-3.8 3.2 0 6.4 0.8 9.3 2.3l255.4 135 256-133.8c6.7-3.5 14.9-2.9 21.1 1.6 6.1 4.5 9.2 12.1 7.9 19.6l-49.5 284.6 206.4 202.1c5.4 5.1 7.3 13 4.9 20.2zM712.8 286.4c-4.7-4.6-6.8-11.2-5.7-17.7l44.3-255-229.3 119.9c-5.8 3-12.8 3-18.6 0l-228.8-121 43.2 255.2c1.1 6.5-1.1 13.1-5.8 17.7L126.3 465.7l256.1 37.8c6.5 1 12.1 5.1 15 11l114 232.4L626.5 515c2.9-5.9 8.6-10 15.1-10.9l256.2-36.6-185-181.1z"  horiz-adv-x="1024" />

    
    <glyph glyph-name="xingxing-shi" unicode="&#58961;" d="M959.7 487.7c-2.4 7.2-8.6 12.5-16.2 13.6l-285.9 40.9L529.2 800.9c-3.4 6.8-10.4 11.1-18 11.1s-14.6-4.4-17.9-11.2L366.1 541.6 80.4 499.4c-7.5-1.1-13.8-6.4-16.1-13.6-2.3-7.2-0.4-15.2 5.1-20.5l207.3-201.1-48.2-284.8c-1.3-7.5 1.8-15.1 8-19.5 3.5-2.5 7.6-3.8 11.7-3.8 3.2 0 6.4 0.8 9.3 2.3l255.4 135 256-133.8c6.7-3.5 14.9-2.9 21.1 1.6 6.1 4.5 9.2 12.1 7.9 19.6l-49.5 284.6 206.4 202.1c5.4 5.1 7.3 13 4.9 20.2z"  horiz-adv-x="1024" />

    
    <glyph glyph-name="APImiyue" unicode="&#59352;" d="M739.552 477.008c0 0.464 0.128 0.896 0.128 1.36v100.688a236.8 236.8 0 1 1-473.6 0v-100.688a23.008 23.008 0 0 1 0.352-3.504 132.608 132.608 0 0 1-106.992-129.904v-260.368a132.576 132.576 0 0 1 132.432-132.432h440.224a132.576 132.576 0 0 1 132.416 132.432V344.96a132.464 132.464 0 0 1-124.96 132.048z m-425.456 102.048a188.8 188.8 0 1 0 377.6 0v-100.688c0-0.336 0-0.656 0.096-0.992H313.984c0 0.336 0.112 0.656 0.112 0.992z m502.4-494.4a84.512 84.512 0 0 0-84.416-84.432H291.888a84.528 84.528 0 0 0-84.432 84.432V345.024a84.528 84.528 0 0 0 84.432 84.416h440.224a84.512 84.512 0 0 0 84.416-84.416zM513.968 292.208a96.4 96.4 0 1 1 96.384-96.384 96.48 96.48 0 0 1-96.384 96.384z m0-144.784a48.4 48.4 0 1 0 48.384 48.4 48.448 48.448 0 0 0-48.384-48.4z"  horiz-adv-x="1024" />

    
    <glyph glyph-name="chaxun3" unicode="&#59274;" d="M621.056 444.416h-324.266667c-14.677333 0-23.722667 9.693867-23.722666 25.6 0 15.837867 9.045333 25.6 23.7568 25.6h324.232533c14.677333 0 23.722667-9.762133 23.722667-25.6 0-15.906133-9.045333-25.6-23.722667-25.6zM482.0992 329.386667H296.823467c-14.677333 0-23.7568 9.728-23.7568 25.6s9.045333 25.6 23.7568 25.6h185.275733c14.677333 0 23.722667-9.728 23.722667-25.6s-9.045333-25.6-23.722667-25.6zM477.866667 95.163733A26.282667 26.282667 0 1 0 477.866667 42.666667H267.229867A96.426667 96.426667 0 0 0 170.666667 138.922667V629.077333A96.426667 96.426667 0 0 0 267.229867 725.333333H688.469333A96.426667 96.426667 0 0 0 785.066667 629.077333v-175.069866a26.282667 26.282667 0 0 0-52.667734 0V629.077333c0 24.200533-19.626667 43.793067-43.895466 43.793067H267.264c-24.234667 0-43.895467-19.592533-43.895467-43.793067v-490.0864c0-24.200533 19.626667-43.793067 43.895467-43.793066H477.866667z m290.679466 71.304534l76.014934-76.049067a27.818667 27.818667 0 0 0 0.341333-39.3216 27.818667 27.818667 0 0 0-39.3216 0.341333l-76.049067 76.014934c-46.1824-28.296533-107.997867-21.947733-148.616533 18.705066-47.479467 47.445333-48.162133 123.767467-1.501867 170.427734 46.660267 46.660267 122.948267 45.9776 170.427734-1.501867 40.6528-40.618667 47.0016-102.4 18.705066-148.616533z m-56.866133 17.851733c25.122133 25.122133 24.746667 66.218667-0.8192 91.818667-25.565867 25.531733-66.6624 25.9072-91.784533 0.785066s-24.746667-66.218667 0.8192-91.784533c25.565867-25.565867 66.6624-25.941333 91.784533-0.8192z"  horiz-adv-x="1024" />

    
    <glyph glyph-name="zichangaikuang" unicode="&#58940;" d="M1086.537032-74.334041c0-16.697469-13.709061-11.389388-30.448327-11.389388H640.30291c-16.739265 0-30.448327-5.308082-30.448327 11.389388v20.772572c0 15.924245 12.559673 8.108408 28.170449 9.257796 0.752327 0 1.525551-0.188082 2.277878-0.188082h415.973877c0.752327 0 1.525551 0.188082 2.277878 0.188082 15.610776-1.149388 28.170449 6.666449 28.170449-9.257796v-20.772572h-0.188082z m-28.170449 113.434123c-0.752327 0-1.525551 0.188082-2.277878 0.188081H640.30291c-0.752327 0-1.525551-0.188082-2.277878-0.188081-15.610776 1.149388-28.170449-4.054204-28.170449 11.849142v16.885552c0 15.924245 12.371592 7.899429 28.170449 9.236897 0.940408 0 1.525551-0.188082 2.277878-0.188081h415.973877c0.940408 0 1.525551 0.188082 2.277878 0.188081 15.610776-1.149388 28.170449 6.687347 28.170449-9.236897l-0.188082-16.885552c0-15.903347-12.559673-10.699755-28.170449-11.849142z m0 104.406204c-0.752327 0-1.525551 0.188082-2.277878 0.188081H640.30291c-0.752327 0-1.525551-0.188082-2.277878-0.188081-15.610776 1.12849-28.170449 5.078204-28.170449 21.002449v1.650938c0 15.924245 12.559673 17.909551 28.170449 19.038041 0.752327 0 1.525551-0.188082 2.277878-0.188081h415.973877c0.752327 0 1.525551 0.188082 2.277878 0.188081 15.610776-1.12849 28.170449-3.113796 28.170449-19.038041l-0.188082-1.650938c0-15.924245-12.371592-19.685878-28.170449-21.002449z m0 125.952c-0.752327 0-1.525551 0.188082-2.277878 0.188081H640.30291c-0.752327 0-1.525551-0.188082-2.277878-0.188081-15.610776 1.12849-32.078367-5.370776-32.078367 10.553469 0 0 1.12849 31.388735 3.907918 31.221551 2.779429-0.167184 14.670367-0.376163 17.094531-0.376163h20.897959l438.878041-1.567347v-30.594612h-0.188082c0-15.924245-12.559673-8.108408-28.170449-9.236898z m0 124.635428c-0.752327 0-1.525551 0.188082-2.277878 0.188082H640.30291c-0.752327 0-1.525551-0.188082-2.277878-0.188082-15.610776 1.149388-28.170449-6.666449-28.170449 9.257796v22.548898c0 16.676571 13.709061 9.42498 30.448327 9.42498h415.973877c16.739265 0 30.448327 7.251592 30.448327-9.42498v-22.548898h-0.188082c0-15.924245-12.559673-8.108408-28.170449-9.257796z m-763.79951 21.190531c43.948408-79.809306 70.593306-130.403265 79.913796-151.844572h0.940408c3.239184 8.735347 11.995429 26.540408 26.268735 53.268898l53.665959 98.575674h47.751836l-94.960326-160.559021h74.981877v-35.63102h-87.144489v-48.901224h87.144489v-35.819102h-87.144489v-71.282939h-44.721633v71.282939h-90.195592v35.819102h90.195592v48.901224h-90.195592v35.63102h77.071674l-93.999021 160.559021h50.426776z m285.424326 60.708571a298.694531 298.694531 0 0 1-206.471836 82.275266c-165.553633 0-320.40751-154.540408-320.407511-319.279021 0-164.717714 155.062857-319.258122 320.407511-319.258122 78.973388 0 150.716082 51.429878 204.173061 101.083428 3.615347-9.278694 9.153306-17.61698 16.384-24.26253a66.45551 66.45551 0 0 1-20.939755-48.33698v-18.390204a372.025469 372.025469 0 0 0-199.617306-57.803755C167.444787-128.167184-0.01056 38.828408-0.01056 244.109061c0 205.301551 167.643429 372.109061 373.530123 372.109061a373.237551 373.237551 0 0 0 277.817469-123.59053h-11.222204c-26.456816 0-49.277388 5.537959-60.123429-16.634776z m-206.471836 190.338613c-39.392653 0-77.635918-9.926531-113.97747-19.978449C199.98291 750.236735 156.97491 869.27151 183.807889 894.307265 185.709603 896 186.482828 896 187.423236 896c9.132408 0 27.021061-11.744653 44.533551-23.113143 34.251755-22.193633 84.511347-61.857959 144.258612-61.857959 53.289796 0 94.730449 37.198367 130.695837 59.580082 19.790367 12.308898 40.14498 25.202939 51.2 25.202938 1.901714 0 2.842122-0.376163 4.367674-1.713632 28.358531-25.579102-11.598367-145.387102-66.97796-250.023184-38.619429 11.765551-79.537633 22.256327-121.981387 22.256327z m148.208326 155.041959a5.01551 5.01551 0 0 1-2.86302 0.752326c-7.042612 0-41.06449-26.394122-53.812245-31.514122-23.029551-9.278694-51.952327-21.044245-86.204082-21.044245-38.431347 0-89.589551 33.603918-111.657796 42.882612-11.410286 4.743837-22.841469 9.675755-28.734694 9.675755-0.564245 0-1.149388 0-2.277877-0.752326-17.324408-10.428082 31.158857-81.00049 69.611102-124.405551 23.405714 4.158694 48.128 11.201306 73.435428 11.201306 27.418122 0 53.665959-7.230694 78.597225-12.141714 35.589224 43.593143 82.170776 114.541714 63.905959 125.345959z"  horiz-adv-x="1086" />

    
    <glyph glyph-name="zhishu" unicode="&#58937;" d="M81.6 154.3h102.7c9.7 0 17.6-7.9 17.6-17.6V-35c0-9.7-7.9-17.6-17.6-17.6H81.6c-9.7 0-17.6 7.9-17.6 17.6V136.7c0 9.7 7.9 17.6 17.6 17.6z m252.7 183.8H437c9.7 0 17.6-7.9 17.6-17.6V-35c0-9.7-7.9-17.6-17.6-17.6H334.3c-9.7 0-17.6 7.9-17.6 17.6V320.5c0 9.7 7.9 17.6 17.6 17.6zM587 223.2h102.7c9.7 0 17.6-7.9 17.6-17.6V-35c0-9.7-7.9-17.6-17.6-17.6H587c-9.7 0-17.6 7.9-17.6 17.6V205.6c0 9.7 7.9 17.6 17.6 17.6z m252.7 252.7h102.7c9.7 0 17.6-7.9 17.6-17.6V-35c0-9.7-7.9-17.6-17.6-17.6H839.7c-9.7 0-17.6 7.9-17.6 17.6V458.3c0.1 9.7 7.9 17.6 17.6 17.6z m-79.5 314.6l45.3-45.3c7-7 6.8-18.5-0.5-25.3L626.6 555.2c-6.4-5.9-16.2-6.2-23-0.7L374.5 741.9c-6.8 5.5-16.6 5.2-23-0.7L69.6 481.1c-3.6-3.3-5.6-8-5.6-12.9v-90.1c0-15.3 18.2-23.3 29.5-12.9l258 238.1c6.4 5.9 16.2 6.2 23 0.7l229.1-187.4c6.8-5.5 16.6-5.2 23 0.7l251.2 231.9c6.9 6.4 17.7 6.2 24.3-0.5l27.9-27.9c11.1-11.1 30-3.2 30 12.4V803c0 9.7-7.9 17.6-17.6 17.6H772.6c-15.6-0.1-23.4-19-12.4-30.1z m-29.9 30"  horiz-adv-x="1024" />

    
    <glyph glyph-name="touxiang" unicode="&#58893;" d="M127.99616 49.834667a377.173333 377.173333 0 0 0 218.282667 342.272 309.76 309.76 0 0 1 165.717333-49.237334 309.76 309.76 0 0 1 165.717333 49.237334A377.173333 377.173333 0 0 0 895.99616 49.834667c2.730667-156.16-768-158.805333-768 0z m566.357333 410.794666a229.973333 229.973333 0 0 0-82.944-54.784c-30.378667-13.653333-66.304-19.2-99.413333-19.2-33.194667 0-69.12 5.461333-99.498667 19.2a289.962667 289.962667 0 0 0-82.773333 54.784 227.669333 227.669333 0 0 0-55.296 82.090667c-13.824 30.122667-19.370667 62.976-19.370667 98.645333 0 32.853333 5.546667 65.706667 19.370667 98.56 13.824 30.122667 33.109333 60.245333 55.210667 82.176 24.917333 24.576 52.48 43.776 82.858666 54.698667C445.69216 890.453333 478.801493 896 511.99616 896c33.109333 0 69.12-5.461333 99.413333-19.2 30.378667-13.653333 60.842667-32.853333 82.944-54.698667 24.746667-24.746667 44.202667-52.053333 55.210667-82.176 13.824-30.122667 19.370667-62.976 19.370667-98.56 0-32.938667-5.546667-65.706667-19.370667-98.645333-11.093333-30.122667-30.378667-57.514667-55.210667-82.090667z"  horiz-adv-x="1024" />

    


  </font>
</defs>
</svg>
